# xmcd
#
# Track frame offsets:
# 150
# 17538
# 40747
# 56623
# 70470
# 90197
# 107288
# 120872
# 141218
# 155712
# 171226
# 185968
#
# Disc length: 2732 seconds
#
#
# Revision: 0
# Processed by: cddbd v1.5.2PL0 Copyright (c) Steve Scherf et al.
# Submitted via: FreeRIP 2.95 
#
DISCID=980aaa0c
DTITLE=Bill Mullis - Ride 'Em Cowboy
DYEAR=2006
DGENRE=Country
TTITLE0=Ride 'Em Cowboy
TTITLE1=I Am
TTITLE2=My Prayer
TTITLE3=Two Step for the Lord
TTITLE4=Tinkling Cymbals and Sounding Brass
TTITLE5=It's Just The First Farewell
TTITLE6=Flying
TTITLE7=If You Died Today
TTITLE8=My Sacrifice
TTITLE9=People Who Were Good
TTITLE10=It's My Dream
TTITLE11=Greater Is He
EXTD=
EXTT0=
EXTT1=
EXTT2=
EXTT3=
EXTT4=
EXTT5=
EXTT6=
EXTT7=
EXTT8=
EXTT9=
EXTT10=
EXTT11=
PLAYORDER=
